<?xml version="1.0" encoding="UTF-8"?>
<!-- The Best Svg Icon site in the world: iconSvg.co, Visit us! https://iconsvg.co -->
<svg fill="#000000" width="800px" height="800px" version="1.1" viewBox="144 144 512 512" xmlns="http://www.w3.org/2000/svg">
 <path d="m400 183.52c-119.66 0-216.48 96.824-216.48 216.48s96.824 216.48 216.48 216.48 216.48-96.824 216.48-216.48-96.828-216.48-216.48-216.48zm0 129.69c23.027 0 41.918 18.695 41.918 41.918 0 23.027-18.695 55.105-41.918 55.105s-41.918-31.883-41.918-55.105c-0.003906-23.223 18.891-41.918 41.918-41.918zm0 174.56c-43.297 0-78.523-17.711-78.523-39.559 0-15.152 17.711-38.77 46.445-50.578l0.78906-0.19531 0.39453 0.58984c9.0547 11.609 20.074 18.105 30.898 18.105 10.824 0 21.844-6.4961 30.898-18.105l0.39453-0.58984 0.78906 0.19531c28.734 11.809 46.445 35.426 46.445 50.578-0.007812 21.844-35.238 39.559-78.531 39.559z"/>
</svg>